<svg id="Слой_1" xmlns="http://www.w3.org/2000/svg" viewBox="0 0 45 45"><style>.st0{fill:#fff}</style><path id="XMLID_5_" class="st0" d="M44.2 20.5c.5 0 .8-.3.8-.9V14c0-1.5-.5-2.7-1.5-3.8l-8.9-9c-.9-.9-2-1.2-3.3-1.2H13.8c-1.3 0-2.4.3-3.3 1.2l-8.9 9C.5 11.3 0 12.5 0 14v17.3c0 1.5.4 2.5 1.5 3.5l8.7 8.7c1 1 2.2 1.5 3.6 1.5h17.5c1.4 0 2.5-.5 3.6-1.5l8.7-8.7c1-1 1.5-2.1 1.5-3.5v-6c0-.5-.3-.8-.8-.8h-2.6v1.8c0 1.4-.2 2.1-1.4 2.1H39c-1.2 0-1.4-.7-1.4-2.1v-1.8h-1.8c-1.4 0-2.1-.2-2.1-1.4v-1.3c0-1.2.7-1.4 2.1-1.4h1.8v-1.8c0-1.4.2-2.1 1.4-2.1h1.2c1.2 0 1.4.7 1.4 2.1v1.8h2.6M15.1 32.7c0 1.4-.2 2.1-1.4 2.1h-1.3c-1.1 0-1.4-.7-1.4-2.1V15.8c0-.8-.2-1.1-.7-1.1h-.8c-1.4 0-2.1-.2-2.1-1.4V12c0-1.1.7-1.4 2.1-1.4h3.6c1.4 0 2.1.2 2.1 1.4v20.7zm7.6-2.1h6.9c1.5 0 2.2.2 2.2 1.5v1.2c0 1.3-.7 1.5-2.2 1.5h-9.5c-1.5 0-2.2-.3-2.2-2v-2.4c0-3.7.5-6.2 3.8-7.6 2.9-1.2 6-1.3 6-5.6 0-2.8-1-3-3-3-1.9 0-2.7.2-2.7 2.2 0 .8-.5.9-1.5.9h-.9c-1.1 0-1.5-.3-1.5-1.3 0-4.7 2-5.8 6.6-5.8 6.6 0 7.1 2.5 7.1 7.9 0 8.8-9.9 6.2-9.9 10.3v1.3c.1.6.3.9.8.9z"/></svg>