<svg id="Слой_1" xmlns="http://www.w3.org/2000/svg" viewBox="0 0 165 26"><style>.st0{fill:#12100b}.st1{fill:#3f6eb5}</style><g id="XMLID_14_"><path id="XMLID_33_" class="st0" d="M21.1 25.2h-5.9s-1.6-8.7-2.6-11.9L6.9 25.2H0L10.5.5h6.4s1.8 11.4 2.2 13.7L26 .5h7.7L21.1 25.2z"/><g id="XMLID_31_"><path id="XMLID_11_" class="st1" d="M37.5 23.8l-.3-2.5h-7.5l-1.2 2.5c-.5 1.1-.7 1.5-.7 1.5h10c-.1-.1-.2-.5-.3-1.5z"/></g><path id="XMLID_29_" class="st0" d="M51.5 25.2h-7.1L40.1.5h7.4L49.3 18 56.9.5h7.5L51.5 25.2z"/><path id="XMLID_27_" class="st0" d="M75.6.6L63.5 25.3h-6.9L68.7.6h6.9z"/><path id="XMLID_24_" class="st0" d="M95.8 9.7c-1 5.5-4.9 8.1-10.3 8.1h-4.2L80 25.2h-7L77.4.5h11.1c5.4 0 8.2 3.7 7.3 9.2zm-7.1-.5c.3-1.5-.5-2.6-2.2-2.6h-3.4l-.9 5.1h3.4c1.7 0 2.9-1 3.1-2.5z"/><path id="XMLID_21_" class="st0" d="M110 0c6.9 0 10.1 4.1 9 10.2l-1.1 6.3c-1.1 6-5.4 9.3-12.2 9.3-6.9 0-10.1-4-9-10.1l1.1-6.3c1-6 5.3-9.4 12.2-9.4zm-.9 6.1c-2.4 0-4 1.1-4.4 3.3l-1.2 6.9c-.4 2.2.8 3.3 3.2 3.3 2.4 0 4-1.1 4.4-3.3l1.2-6.9c.3-2.2-.8-3.3-3.2-3.3z"/><path id="XMLID_18_" class="st0" d="M142.2 9.2c-.6 3.4-2.4 5.6-5 6.9.2.5.5.9.7 1.5l2.7 7.7h-8l-1.9-6.4c-.4-1.2-.6-1.8-2.2-1.8h-.9l-1.5 8.2h-6.9L123.5.6H135c5.3-.1 8.2 3.2 7.2 8.6zm-9-2.6h-3.7l-.8 4.6h3.8c1.5 0 2.4-.9 2.7-2.3.1-1.4-.5-2.3-2-2.3z"/><path id="XMLID_16_" class="st0" d="M163.9 6.6h-6.6L154 25.2h-6.9l3.3-18.6h-6.7l1.1-6.1H165l-1.1 6.1z"/><path id="XMLID_1_" class="st1" d="M30.9 18.2l.5-1.2L36 6.3l.9 11.9"/></g></svg>