<?xml version="1.0" encoding="utf-8"?>
<!-- Generator: Adobe Illustrator 19.0.0, SVG Export Plug-In . SVG Version: 6.00 Build 0)  -->
<svg version="1.1" id="Слой_1" xmlns="http://www.w3.org/2000/svg" xmlns:xlink="http://www.w3.org/1999/xlink" x="0px" y="0px"
	 viewBox="0 0 45 45" style="enable-background:new 0 0 45 45;" xml:space="preserve">
<style type="text/css">
	.st0{fill:#FFFFFF;}
</style>
<path id="XMLID_5_" class="st0" d="M44.2,20.5c0.5,0,0.8-0.3,0.8-0.9V14c0-1.5-0.5-2.7-1.5-3.8l-8.9-9c-0.9-0.9-2-1.2-3.3-1.2H13.8
	c-1.3,0-2.4,0.3-3.3,1.2l-8.9,9C0.5,11.3,0,12.5,0,14v17.3c0,1.5,0.4,2.5,1.5,3.5l8.7,8.7c1,1,2.2,1.5,3.6,1.5h17.5
	c1.4,0,2.5-0.5,3.6-1.5l8.7-8.7c1-1,1.5-2.1,1.5-3.5v-6c0-0.5-0.3-0.8-0.8-0.8h-2.6v1.8c0,1.4-0.2,2.1-1.4,2.1H39
	c-1.2,0-1.4-0.7-1.4-2.1v-1.8h-1.8c-1.4,0-2.1-0.2-2.1-1.4v-1.3c0-1.2,0.7-1.4,2.1-1.4h1.8v-1.8c0-1.4,0.2-2.1,1.4-2.1h1.2
	c1.2,0,1.4,0.7,1.4,2.1v1.8H44.2 M15.1,32.7c0,1.4-0.2,2.1-1.4,2.1h-1.3c-1.1,0-1.4-0.7-1.4-2.1V15.8c0-0.8-0.2-1.1-0.7-1.1H9.5
	c-1.4,0-2.1-0.2-2.1-1.4V12c0-1.1,0.7-1.4,2.1-1.4h3.6c1.4,0,2.1,0.2,2.1,1.4V32.7z M22.7,30.6h6.9c1.5,0,2.2,0.2,2.2,1.5v1.2
	c0,1.3-0.7,1.5-2.2,1.5h-9.5c-1.5,0-2.2-0.3-2.2-2v-2.4c0-3.7,0.5-6.2,3.8-7.6c2.9-1.2,6-1.3,6-5.6c0-2.8-1-3-3-3
	c-1.9,0-2.7,0.2-2.7,2.2c0,0.8-0.5,0.9-1.5,0.9h-0.9c-1.1,0-1.5-0.3-1.5-1.3c0-4.7,2-5.8,6.6-5.8c6.6,0,7.1,2.5,7.1,7.9
	c0,8.8-9.9,6.2-9.9,10.3v1.3C22,30.3,22.2,30.6,22.7,30.6z"/>
</svg>
