<?xml version="1.0" encoding="utf-8"?>
<!-- Generator: Adobe Illustrator 19.0.0, SVG Export Plug-In . SVG Version: 6.00 Build 0)  -->
<svg version="1.1" id="Слой_1" xmlns="http://www.w3.org/2000/svg" xmlns:xlink="http://www.w3.org/1999/xlink" x="0px" y="0px"
	 viewBox="0 0 165 26" style="enable-background:new 0 0 165 26;" xml:space="preserve">
<style type="text/css">
	.st0{fill:#12100B;}
	.st1{fill:#3F6EB5;}
</style>
<g id="XMLID_14_">
	<path id="XMLID_33_" class="st0" d="M21.1,25.2h-5.9c0,0-1.6-8.7-2.6-11.9L6.9,25.2H0L10.5,0.5h6.4c0,0,1.8,11.4,2.2,13.7L26,0.5
		h7.7L21.1,25.2z"/>
	<g id="XMLID_31_">
		<path id="XMLID_11_" class="st1" d="M37.5,23.8l-0.3-2.5h-7.5l-1.2,2.5c-0.5,1.1-0.7,1.5-0.7,1.5h10
			C37.7,25.2,37.6,24.8,37.5,23.8z"/>
	</g>
	<path id="XMLID_29_" class="st0" d="M51.5,25.2h-7.1L40.1,0.5h7.4L49.3,18l7.6-17.5h7.5L51.5,25.2z"/>
	<path id="XMLID_27_" class="st0" d="M75.6,0.6L63.5,25.3h-6.9L68.7,0.6H75.6z"/>
	<path id="XMLID_24_" class="st0" d="M95.8,9.7c-1,5.5-4.9,8.1-10.3,8.1h-4.2l-1.3,7.4H73l4.4-24.7h11.1C93.9,0.5,96.7,4.2,95.8,9.7
		z M88.7,9.2c0.3-1.5-0.5-2.6-2.2-2.6h-3.4l-0.9,5.1h3.4C87.3,11.7,88.5,10.7,88.7,9.2z"/>
	<path id="XMLID_21_" class="st0" d="M110,0c6.9,0,10.1,4.1,9,10.2l-1.1,6.3c-1.1,6-5.4,9.3-12.2,9.3c-6.9,0-10.1-4-9-10.1l1.1-6.3
		C98.8,3.4,103.1,0,110,0z M109.1,6.1c-2.4,0-4,1.1-4.4,3.3l-1.2,6.9c-0.4,2.2,0.8,3.3,3.2,3.3c2.4,0,4-1.1,4.4-3.3l1.2-6.9
		C112.6,7.2,111.5,6.1,109.1,6.1z"/>
	<path id="XMLID_18_" class="st0" d="M142.2,9.2c-0.6,3.4-2.4,5.6-5,6.9c0.2,0.5,0.5,0.9,0.7,1.5l2.7,7.7h-8l-1.9-6.4
		c-0.4-1.2-0.6-1.8-2.2-1.8h-0.9l-1.5,8.2h-6.9l4.3-24.7H135C140.3,0.5,143.2,3.8,142.2,9.2z M133.2,6.6h-3.7l-0.8,4.6h3.8
		c1.5,0,2.4-0.9,2.7-2.3C135.3,7.5,134.7,6.6,133.2,6.6z"/>
	<path id="XMLID_16_" class="st0" d="M163.9,6.6l-6.6,0L154,25.2h-6.9l3.3-18.6l-6.7,0l1.1-6.1H165L163.9,6.6z"/>
	<polyline id="XMLID_1_" class="st1" points="30.9,18.2 31.4,17 36,6.3 36.9,18.2 	"/>
</g>
</svg>
